<mxfile host="app.diagrams.net" modified="2023-07-31T13:03:19.567Z" agent="Mozilla/5.0 (Windows NT 10.0; Win64; x64) AppleWebKit/537.36 (KHTML, like Gecko) Chrome/115.0.0.0 Safari/537.36" etag="DjoO7ogqeWRiTorWiMm-" version="21.6.6" type="device">
  <diagram name="Page-1" id="kYPBIHNwmSgkaBfpzGXo">
    <mxGraphModel dx="1376" dy="768" grid="1" gridSize="10" guides="1" tooltips="1" connect="1" arrows="1" fold="1" page="1" pageScale="1" pageWidth="850" pageHeight="1100" background="#ffffff" math="0" shadow="0">
      <root>
        <mxCell id="0" />
        <mxCell id="1" parent="0" />
        <mxCell id="Px055thE-OYpkdKHNZWv-1" value="Function: l_cc_auto_openBlendDoor&#xa;&#xa;&#xa;&#xa;Description:&#xa;    Sets the pwm data input 4 (which corresponds to blend door) to the percentage the blend door will allow hot air to get mixed&#xa;    with cool air (if there is cooling), or just heat coming in then.&#xa;&#xa;&#xa;&#xa;Parameters In:&#xa;    blendValue: blend_door_value_e&#xa;&#xa;&#xa;&#xa;Parameters Out:&#xa;    None&#xa;&#xa;&#xa;&#xa;Return Value:&#xa;    None" style="text;whiteSpace=wrap;" vertex="1" parent="1">
          <mxGeometry x="425" y="10" width="420" height="380" as="geometry" />
        </mxCell>
        <mxCell id="Px055thE-OYpkdKHNZWv-3" style="edgeStyle=orthogonalEdgeStyle;rounded=0;orthogonalLoop=1;jettySize=auto;html=1;" edge="1" parent="1" source="Px055thE-OYpkdKHNZWv-2" target="Px055thE-OYpkdKHNZWv-4">
          <mxGeometry relative="1" as="geometry">
            <mxPoint x="240" y="350" as="targetPoint" />
          </mxGeometry>
        </mxCell>
        <mxCell id="Px055thE-OYpkdKHNZWv-2" value="" style="ellipse;whiteSpace=wrap;html=1;" vertex="1" parent="1">
          <mxGeometry x="180" y="170" width="120" height="80" as="geometry" />
        </mxCell>
        <mxCell id="Px055thE-OYpkdKHNZWv-5" style="edgeStyle=orthogonalEdgeStyle;rounded=0;orthogonalLoop=1;jettySize=auto;html=1;" edge="1" parent="1" source="Px055thE-OYpkdKHNZWv-4" target="Px055thE-OYpkdKHNZWv-6">
          <mxGeometry relative="1" as="geometry">
            <mxPoint x="240" y="450" as="targetPoint" />
          </mxGeometry>
        </mxCell>
        <mxCell id="Px055thE-OYpkdKHNZWv-4" value="call&amp;nbsp;l_cc_auto_openBlendDoor" style="rounded=1;whiteSpace=wrap;html=1;" vertex="1" parent="1">
          <mxGeometry x="145" y="310" width="190" height="60" as="geometry" />
        </mxCell>
        <mxCell id="Px055thE-OYpkdKHNZWv-7" style="edgeStyle=orthogonalEdgeStyle;rounded=0;orthogonalLoop=1;jettySize=auto;html=1;" edge="1" parent="1" source="Px055thE-OYpkdKHNZWv-6" target="Px055thE-OYpkdKHNZWv-8">
          <mxGeometry relative="1" as="geometry">
            <mxPoint x="240" y="540" as="targetPoint" />
          </mxGeometry>
        </mxCell>
        <mxCell id="Px055thE-OYpkdKHNZWv-6" value="heatingSystem.blend_door gets assigned the blendValue" style="rounded=1;whiteSpace=wrap;html=1;" vertex="1" parent="1">
          <mxGeometry x="160" y="420" width="160" height="60" as="geometry" />
        </mxCell>
        <mxCell id="Px055thE-OYpkdKHNZWv-9" style="edgeStyle=orthogonalEdgeStyle;rounded=0;orthogonalLoop=1;jettySize=auto;html=1;" edge="1" parent="1" source="Px055thE-OYpkdKHNZWv-8" target="Px055thE-OYpkdKHNZWv-10">
          <mxGeometry relative="1" as="geometry">
            <mxPoint x="240" y="630" as="targetPoint" />
          </mxGeometry>
        </mxCell>
        <mxCell id="Px055thE-OYpkdKHNZWv-8" value="pwmData of input4 gets assigned the blendValue casted to uint16" style="rounded=1;whiteSpace=wrap;html=1;" vertex="1" parent="1">
          <mxGeometry x="170" y="520" width="140" height="60" as="geometry" />
        </mxCell>
        <mxCell id="Px055thE-OYpkdKHNZWv-10" value="" style="ellipse;whiteSpace=wrap;html=1;" vertex="1" parent="1">
          <mxGeometry x="180" y="620" width="120" height="80" as="geometry" />
        </mxCell>
      </root>
    </mxGraphModel>
  </diagram>
</mxfile>
